<svg width="2480" height="2475" xmlns="http://www.w3.org/2000/svg" xmlns:xlink="http://www.w3.org/1999/xlink" xml:space="preserve" overflow="hidden"><g transform="translate(-1017 -55)"><g><g><g><g><path d="M2719.56 2117.5 1791.44 2117.5 1791.44 467.5 2719.56 467.5 2719.56 2117.5ZM2152.37 261.25 2358.62 261.25C2386.98 261.25 2410.19 284.453 2410.19 312.812 2410.19 341.172 2386.98 364.375 2358.62 364.375L2152.37 364.375C2124.02 364.375 2100.81 341.172 2100.81 312.812 2100.81 284.453 2124.02 261.25 2152.37 261.25ZM2822.69 158.125 1688.31 158.125C1659.95 158.125 1636.75 181.328 1636.75 209.688L1636.75 2375.31C1636.75 2403.67 1659.95 2426.88 1688.31 2426.88L2822.69 2426.88C2851.05 2426.88 2874.25 2403.67 2874.25 2375.31L2874.25 209.688C2874.25 181.328 2851.05 158.125 2822.69 158.125Z" fill="#000000" fill-rule="nonzero" fill-opacity="1"/></g></g></g><g><g><g><path d="M1791.44 467.5 2719.56 467.5 2719.56 2117.5 1791.44 2117.5 1791.44 467.5ZM2358.62 2323.75 2152.37 2323.75C2124.02 2323.75 2100.81 2300.55 2100.81 2272.19 2100.81 2243.83 2124.02 2220.62 2152.37 2220.62L2358.62 2220.62C2386.98 2220.62 2410.19 2243.83 2410.19 2272.19 2410.19 2300.55 2386.98 2323.75 2358.62 2323.75ZM1688.31 2426.88 2822.69 2426.88C2851.05 2426.88 2874.25 2403.67 2874.25 2375.31L2874.25 209.688C2874.25 181.328 2851.05 158.125 2822.69 158.125L1688.31 158.125C1659.95 158.125 1636.75 181.328 1636.75 209.688L1636.75 2375.31C1636.75 2403.67 1659.95 2426.88 1688.31 2426.88Z" fill="#000000" fill-rule="nonzero" fill-opacity="1"/></g></g></g></g></g></svg>