<svg id="Layer_1" data-name="Layer 1" xmlns="http://www.w3.org/2000/svg" viewBox="0 0 94.3 122.88"><defs><style>.cls-1{fill-rule:evenodd;}</style></defs><title>sd-card</title><path class="cls-1" d="M16.54,0H88.65A5.67,5.67,0,0,1,94.3,5.65V117.23a5.68,5.68,0,0,1-5.65,5.65H10.89C2,122.75,0,120.5,0,112.63V83.68l5.06-6.06V66.75H0V51.08L10.89,40.72V5.65A5.66,5.66,0,0,1,16.54,0ZM31,105.39c-1.09,0-2.14,0-3.18-.1s-2-.16-3-.29-2-.28-2.88-.45-1.8-.36-2.65-.59V96.39c1.11.1,2.32.18,3.61.25s2.61.11,3.93.15,2.57,0,3.71,0a12.69,12.69,0,0,0,2.71-.25,3.24,3.24,0,0,0,1.62-.79,2,2,0,0,0,.54-1.47v-.59a1.85,1.85,0,0,0-.76-1.62,3,3,0,0,0-1.8-.54h-2.6c-3.8,0-6.69-.84-8.65-2.51s-2.95-4.48-2.95-8.41V79q0-5.4,3.24-8.09c2.16-1.78,5.28-2.68,9.34-2.68a39.7,39.7,0,0,1,4.35.23q2,.21,3.84.54c1.19.21,2.27.43,3.22.66v7.57c-1.51-.13-3.21-.24-5.09-.32s-3.6-.12-5.14-.12a14.05,14.05,0,0,0-2.46.19,3.19,3.19,0,0,0-1.67.79,2.34,2.34,0,0,0-.59,1.72V80a2.25,2.25,0,0,0,.79,1.87,3.75,3.75,0,0,0,2.41.64h3.24a11.4,11.4,0,0,1,5.73,1.3,8.55,8.55,0,0,1,3.44,3.54,10.94,10.94,0,0,1,1.16,5.09v1.62c0,3.12-.55,5.49-1.63,7.13a7.94,7.94,0,0,1-4.62,3.32,26.37,26.37,0,0,1-7.17.86Zm19.73-.3V68.57H66.89A13.53,13.53,0,0,1,73.42,70a10.4,10.4,0,0,1,4,3.91,17.37,17.37,0,0,1,2.06,5.82,41.33,41.33,0,0,1,.59,7.16A31.17,31.17,0,0,1,78.66,97.3a11.33,11.33,0,0,1-4.38,5.9,13.34,13.34,0,0,1-7.39,1.89Zm9.54-8.55h5.6a3.89,3.89,0,0,0,2.83-1,5.9,5.9,0,0,0,1.43-3.12,31.07,31.07,0,0,0,.41-5.58,32.47,32.47,0,0,0-.32-5.19,8.19,8.19,0,0,0-.93-2.93,3,3,0,0,0-1.48-1.3,5.6,5.6,0,0,0-1.94-.32H60.3V96.54ZM20,9.56h6.13a.55.55,0,0,1,.55.55V30.85a.55.55,0,0,1-.55.55H20a.55.55,0,0,1-.55-.55V10.11A.55.55,0,0,1,20,9.56Zm11.85,0H38a.56.56,0,0,1,.56.55V30.85a.56.56,0,0,1-.56.55H31.84a.56.56,0,0,1-.56-.55V10.11a.56.56,0,0,1,.56-.55Zm11.84,0h6.13a.55.55,0,0,1,.55.55V30.85a.55.55,0,0,1-.55.55H43.68a.55.55,0,0,1-.55-.55V10.11a.55.55,0,0,1,.55-.55Zm11.85,0h6.12a.56.56,0,0,1,.56.55V30.85a.56.56,0,0,1-.56.55H55.53a.55.55,0,0,1-.55-.55V10.11a.55.55,0,0,1,.55-.55Zm11.84,0H73.5a.55.55,0,0,1,.55.55V30.85a.55.55,0,0,1-.55.55H67.37a.55.55,0,0,1-.55-.55V10.11a.55.55,0,0,1,.55-.55Zm11.85,0h6.12a.56.56,0,0,1,.56.55V30.85a.56.56,0,0,1-.56.55H79.22a.55.55,0,0,1-.55-.55V10.11a.55.55,0,0,1,.55-.55Z"/></svg>