<svg width="720" height="720" xmlns="http://www.w3.org/2000/svg" xmlns:xlink="http://www.w3.org/1999/xlink" xml:space="preserve" overflow="hidden"><g transform="translate(-280 0)"><g><path d="M865 150 737.5 150 737.5 112.5C737.5 83.25 714.25 60 685 60L595 60C565.75 60 542.5 83.25 542.5 112.5L542.5 150 415 150C398.5 150 385 163.5 385 180L385 210 895 210 895 180C895 163.5 881.5 150 865 150ZM587.5 112.5C587.5 108 590.5 105 595 105L685 105C689.5 105 692.5 108 692.5 112.5L692.5 150 587.5 150 587.5 112.5Z" fill="#000000" fill-rule="nonzero" fill-opacity="1"/><path d="M430 630C430 646.5 443.5 660 460 660L820 660C836.5 660 850 646.5 850 630L850 240 430 240 430 630ZM737.5 285 782.5 285 782.5 615 737.5 615 737.5 285ZM617.5 285 662.5 285 662.5 615 617.5 615 617.5 285ZM497.5 285 542.5 285 542.5 615 497.5 615 497.5 285Z" fill="#000000" fill-rule="nonzero" fill-opacity="1"/></g></g></svg>