<svg width="720" height="720" xmlns="http://www.w3.org/2000/svg" xmlns:xlink="http://www.w3.org/1999/xlink" xml:space="preserve" overflow="hidden"><g transform="translate(-280 0)"><g><path d="M831.25 165 802 194.25C895 287.25 895 438.75 802 531.75L831.25 561C940.75 452.25 940.75 274.5 831.25 165Z" fill="#000000" fill-rule="nonzero" fill-opacity="1"/><path d="M772 223.5 742.75 252.75C803.5 313.5 803.5 411.75 742.75 473.25L772 502.5C849.25 425.25 849.25 300.75 772 223.5Z" fill="#000000" fill-rule="nonzero" fill-opacity="1"/><path d="M714.25 283.5 685 312.75C713.5 341.25 713.5 387 685 415.5L714.25 444.75C759.25 399.75 759.25 327.75 714.25 283.5Z" fill="#000000" fill-rule="nonzero" fill-opacity="1"/><path d="M306.25 259.5 306.25 460.5 451.75 460.5 640 615 640 105 451.75 259.5Z" fill="#000000" fill-rule="nonzero" fill-opacity="1"/></g></g></svg>